<svg aria-hidden="true" focusable="false" role="img" xmlns="http://www.w3.org/2000/svg" viewBox="0 0 104 104"><g><path fill="currentColor" d="M53.079,38.536C52.775,38.015 52.105,37.838 51.584,38.142C51.478,38.203 51.384,38.282 51.305,38.374L30.123,66.537C29.736,66.991 29.79,67.671 30.243,68.057C30.417,68.205 30.633,68.295 30.86,68.312L67.989,71.538C68.594,71.584 69.121,71.131 69.167,70.527C69.183,70.309 69.135,70.092 69.026,69.902L53.079,38.536Z"/><path fill="currentColor" d="M77.256,53.493C76.951,52.972 76.281,52.795 75.76,53.099C75.654,53.16 75.561,53.239 75.481,53.332L69.767,59.117C69.467,59.465 69.42,59.965 69.652,60.362L75.506,71.77C75.686,72.076 76.004,72.274 76.359,72.299L86.706,73.198C87.311,73.244 87.837,72.791 87.883,72.186C87.9,71.969 87.851,71.751 87.743,71.561L77.256,53.493Z"/><path fill="currentColor" d="M79.766,44.344C82.774,44.282 85.162,41.794 85.101,38.785C85.039,35.777 82.551,33.388 79.542,33.45C76.973,33.503 74.789,35.344 74.304,37.868C73.761,40.853 75.741,43.713 78.725,44.256C79.069,44.318 79.417,44.348 79.766,44.344"/><path fill="currentColor" d="M96.289,30.677L92.257,76.77C92.183,77.628 91.432,78.265 90.574,78.198L86.294,77.829L26.206,72.598C25.349,72.524 24.712,71.773 24.778,70.915L25.653,60.798L28.811,24.822C28.886,23.965 29.637,23.328 30.495,23.394L76.127,27.381L82.972,27.98L94.856,29.017C95.686,29.052 96.332,29.752 96.298,30.582C96.297,30.614 96.294,30.645 96.291,30.677L96.289,30.677ZM12.815,61.928C11.96,61.997 11.205,61.374 11.111,60.521L6.961,14.43C6.887,13.577 7.515,12.824 8.367,12.745L72.714,6.962C73.569,6.893 74.324,7.516 74.418,8.369L75.525,20.538L29.039,16.451C25.603,16.149 22.571,18.686 22.264,22.121L18.83,61.375L12.815,61.928ZM97.536,22.427L82.371,21.112L80.964,5.672C80.657,2.247 77.633,-0.281 74.207,0.025C74.193,0.027 74.18,0.028 74.165,0.029L5.694,6.201C2.259,6.509 -0.278,9.541 0.024,12.976L6.2,81.312C6.507,84.737 9.531,87.265 12.957,86.958C12.971,86.957 12.984,86.956 12.998,86.954L16.617,86.632L16.271,90.48C15.97,93.906 18.502,96.927 21.928,97.229C21.939,97.23 21.952,97.231 21.965,97.232L90.482,103.201C93.919,103.504 96.95,100.967 97.258,97.531L103.251,29.175C103.521,25.738 100.971,22.726 97.536,22.427"/></g></svg>
