<svg aria-hidden="true" focusable="false" role="img" xmlns="http://www.w3.org/2000/svg" viewBox="0 0 110 90"><path fill="currentColor" d="M29.862,0L19.907,0L19.907,9.955L29.862,9.955L29.862,0ZM49.77,0L39.817,0L39.817,9.955L49.772,9.955L49.77,0ZM9.955,39.817L0,39.817L0,49.772L9.955,49.772L9.955,39.817ZM9.955,0C4.615,0.362 0.363,4.614 0,9.955L9.955,9.955L9.955,0ZM89.586,79.631L79.631,79.631L79.631,89.586L89.586,89.586L89.586,79.631ZM89.586,0L79.631,0L79.631,9.955L89.586,9.955L89.586,0ZM69.677,79.631L59.725,79.631L59.725,89.586L69.679,89.586L69.677,79.631ZM9.955,19.909L0,19.909L0,29.864L9.955,29.864L9.955,19.909ZM9.955,89.586L49.77,89.586L49.77,59.724L0,59.724L0,79.631C0.016,85.122 4.464,89.57 9.955,89.586M99.539,0L99.539,9.955L109.494,9.955C109.131,4.614 104.88,0.362 99.539,0M109.494,19.907L99.539,19.907L99.539,29.862L109.494,29.862L109.494,19.907ZM69.677,0L59.725,0L59.725,9.955L69.679,9.955L69.677,0ZM109.494,79.633L99.539,79.633L99.539,89.588C104.88,89.226 109.132,84.973 109.494,79.631L109.494,79.633ZM109.494,39.817L99.539,39.817L99.539,49.772L109.494,49.772L109.494,39.817ZM109.494,59.724L99.539,59.724L99.539,69.679L109.494,69.679L109.494,59.724Z"/></svg>
