<!DOCTYPE svg PUBLIC "-//W3C//DTD SVG 1.1//EN" "http://www.w3.org/Graphics/SVG/1.1/DTD/svg11.dtd">
<svg width="100%" height="100%" viewBox="0 0 1253 317" version="1.1" xmlns="http://www.w3.org/2000/svg" xmlns:xlink="http://www.w3.org/1999/xlink" xml:space="preserve" xmlns:serif="http://www.serif.com/" style="fill-rule:evenodd;clip-rule:evenodd;" aria-labelledby="states-industries-logo-lockup" class="site-logo lockup">
	<title id="states-industries-logo-lockup">States Industries</title>
    <g transform="matrix(1,0,0,1,-97.61,-100.376)">
        <g>
            <g transform="matrix(4.16667,0,0,4.16667,526.334,122.37)">
                <g>
                    <path d="M0,48.577C-0.948,48.111 -1.016,47.845 -1.016,46.048C-1.016,42.722 -0.745,40.059 -0.677,38.994C-0.61,38.263 -0.474,37.93 -0.135,37.93C0.271,37.93 0.339,38.13 0.339,38.662C0.339,39.261 0.339,40.192 0.542,41.124C1.559,46.048 6.032,47.911 10.572,47.911C17.078,47.911 20.263,43.32 20.263,39.061C20.263,34.47 18.297,31.808 12.47,27.084L9.42,24.621C2.237,18.832 0.61,14.706 0.61,10.182C0.61,3.061 6.032,-1.796 14.638,-1.796C17.281,-1.796 19.246,-1.53 20.94,-1.131C22.228,-0.864 22.77,-0.798 23.312,-0.798C23.854,-0.798 23.99,-0.665 23.99,-0.332C23.99,0.001 23.719,2.197 23.719,6.722C23.719,7.786 23.583,8.252 23.245,8.252C22.838,8.252 22.77,7.919 22.702,7.387C22.635,6.588 22.228,4.792 21.821,4.06C21.415,3.328 19.585,0.533 13.351,0.533C8.675,0.533 5.015,3.394 5.015,8.252C5.015,12.045 6.913,14.307 13.283,19.431L15.18,20.895C23.177,27.084 25.074,31.209 25.074,36.533C25.074,39.261 23.99,44.318 19.314,47.579C16.4,49.576 12.741,50.373 9.081,50.373C5.896,50.373 2.779,49.908 0,48.577" style="fill:rgb(35,31,32);fill-rule:nonzero;"/>
                </g>
            </g>
            <g transform="matrix(4.16667,0,0,4.16667,736.655,195.297)">
                <g>
                    <path d="M0,12.642C0,19.03 0,24.287 0.339,27.082C0.542,29.012 0.949,30.475 2.982,30.742C3.93,30.875 5.421,31.008 6.031,31.008C6.438,31.008 6.573,31.208 6.573,31.407C6.573,31.74 6.234,31.94 5.489,31.94C1.762,31.94 -2.507,31.74 -2.846,31.74C-3.185,31.74 -7.455,31.94 -9.487,31.94C-10.233,31.94 -10.572,31.807 -10.572,31.407C-10.572,31.208 -10.436,31.008 -10.03,31.008C-9.419,31.008 -8.606,30.875 -7.997,30.742C-6.642,30.475 -6.302,29.012 -6.031,27.082C-5.692,24.287 -5.692,19.03 -5.692,12.642L-5.692,-15.505L-15.722,-15.372C-19.923,-15.306 -21.55,-14.84 -22.634,-13.243C-23.38,-12.112 -23.583,-11.646 -23.787,-11.18C-23.99,-10.648 -24.193,-10.515 -24.464,-10.515C-24.667,-10.515 -24.803,-10.714 -24.803,-11.113C-24.803,-11.779 -23.447,-17.502 -23.312,-18.034C-23.176,-18.433 -22.905,-19.298 -22.634,-19.298C-22.16,-19.298 -21.482,-18.633 -19.652,-18.5C-17.687,-18.3 -15.112,-18.167 -14.299,-18.167L11.114,-18.167C13.282,-18.167 14.841,-18.367 15.925,-18.5C16.942,-18.699 17.552,-18.833 17.823,-18.833C18.162,-18.833 18.162,-18.433 18.162,-18.034C18.162,-16.038 17.958,-11.446 17.958,-10.714C17.958,-10.116 17.755,-9.849 17.484,-9.849C17.145,-9.849 17.01,-10.049 16.942,-10.981L16.874,-11.712C16.603,-13.709 15.044,-15.239 8.539,-15.372L0,-15.505L0,12.642Z" style="fill:rgb(35,31,32);fill-rule:nonzero;"/>
                </g>
            </g>
            <g transform="matrix(4.16667,0,0,4.16667,891.376,208.601)">
                <g>
                    <path d="M0,6.255L-6.437,-11.712C-6.777,-12.71 -7.116,-12.71 -7.454,-11.712L-13.418,6.255L-14.638,9.649L-18.704,21.427C-19.313,23.09 -19.652,24.687 -19.652,25.885C-19.652,27.216 -18.229,27.815 -17.077,27.815L-16.4,27.815C-15.925,27.815 -15.722,27.948 -15.722,28.214C-15.722,28.613 -16.129,28.747 -16.738,28.747C-18.365,28.747 -21.279,28.547 -22.024,28.547C-22.77,28.547 -26.497,28.747 -29.682,28.747C-30.563,28.747 -30.969,28.613 -30.969,28.214C-30.969,27.948 -30.698,27.815 -30.36,27.815C-29.885,27.815 -28.937,27.748 -28.395,27.682C-25.277,27.282 -23.922,24.754 -22.702,21.427L-7.319,-19.896C-6.506,-22.092 -6.234,-22.492 -5.828,-22.492C-5.421,-22.492 -5.15,-22.159 -4.337,-20.096C-3.32,-17.567 7.319,9.915 11.453,20.029C13.893,25.952 15.858,27.016 17.281,27.416C18.297,27.748 19.314,27.815 19.991,27.815C20.398,27.815 20.669,27.881 20.669,28.214C20.669,28.613 20.059,28.747 19.314,28.747C18.297,28.747 13.35,28.747 8.674,28.613C7.387,28.547 6.641,28.547 6.641,28.148C6.641,27.881 6.845,27.748 7.116,27.682C7.522,27.548 7.929,26.95 7.522,25.885L1.22,9.516L0,6.255Z" style="fill:rgb(35,31,32);fill-rule:nonzero;"/>
                </g>
            </g>
            <g transform="matrix(4.16667,0,0,4.16667,1020.98,195.297)">
                <g>
                    <path d="M0,12.642C0,19.03 0,24.287 0.339,27.082C0.542,29.012 0.949,30.475 2.982,30.742C3.931,30.875 5.421,31.008 6.032,31.008C6.438,31.008 6.574,31.208 6.574,31.407C6.574,31.74 6.235,31.94 5.489,31.94C1.762,31.94 -2.507,31.74 -2.846,31.74C-3.185,31.74 -7.454,31.94 -9.487,31.94C-10.232,31.94 -10.571,31.807 -10.571,31.407C-10.571,31.208 -10.436,31.008 -10.029,31.008C-9.419,31.008 -8.606,30.875 -7.996,30.742C-6.641,30.475 -6.302,29.012 -6.031,27.082C-5.692,24.287 -5.692,19.03 -5.692,12.642L-5.692,-15.505L-15.722,-15.372C-19.923,-15.306 -21.55,-14.84 -22.634,-13.243C-23.379,-12.112 -23.583,-11.646 -23.786,-11.18C-23.989,-10.648 -24.193,-10.515 -24.464,-10.515C-24.667,-10.515 -24.802,-10.714 -24.802,-11.113C-24.802,-11.779 -23.447,-17.502 -23.312,-18.034C-23.176,-18.433 -22.905,-19.298 -22.634,-19.298C-22.16,-19.298 -21.482,-18.633 -19.652,-18.5C-17.687,-18.3 -15.112,-18.167 -14.299,-18.167L11.114,-18.167C13.283,-18.167 14.841,-18.367 15.925,-18.5C16.942,-18.699 17.552,-18.833 17.823,-18.833C18.162,-18.833 18.162,-18.433 18.162,-18.034C18.162,-16.038 17.958,-11.446 17.958,-10.714C17.958,-10.116 17.755,-9.849 17.484,-9.849C17.146,-9.849 17.01,-10.049 16.942,-10.981L16.875,-11.712C16.604,-13.709 15.044,-15.239 8.539,-15.372L0,-15.505L0,12.642Z" style="fill:rgb(35,31,32);fill-rule:nonzero;"/>
                </g>
            </g>
            <g transform="matrix(4.16667,0,0,4.16667,1127.13,246.583)">
                <g>
                    <path d="M0,-11.378C0,-21.759 0,-23.622 -0.136,-25.751C-0.271,-28.013 -0.813,-29.078 -3.049,-29.544C-3.592,-29.677 -4.744,-29.744 -5.354,-29.744C-5.625,-29.744 -5.896,-29.877 -5.896,-30.143C-5.896,-30.542 -5.557,-30.675 -4.812,-30.675C-1.762,-30.675 2.507,-30.476 2.846,-30.476C3.32,-30.476 16.806,-30.476 18.365,-30.542C19.652,-30.609 20.737,-30.742 21.279,-30.875C21.618,-30.941 21.889,-31.208 22.228,-31.208C22.431,-31.208 22.499,-30.941 22.499,-30.609C22.499,-30.143 22.16,-29.344 21.957,-27.481C21.889,-26.816 21.753,-23.888 21.618,-23.089C21.55,-22.757 21.414,-22.357 21.143,-22.357C20.737,-22.357 20.601,-22.691 20.601,-23.223C20.601,-23.688 20.534,-24.819 20.194,-25.618C19.72,-26.683 19.042,-27.481 15.383,-27.88C14.231,-28.013 6.844,-28.08 6.099,-28.08C5.828,-28.08 5.692,-27.88 5.692,-27.415L5.692,-9.049C5.692,-8.583 5.76,-8.383 6.099,-8.383C6.98,-8.383 15.315,-8.383 16.874,-8.517C18.5,-8.649 19.449,-8.783 20.059,-9.448C20.534,-9.981 20.805,-10.313 21.075,-10.313C21.279,-10.313 21.414,-10.18 21.414,-9.781C21.414,-9.382 21.075,-8.251 20.872,-6.055C20.737,-4.724 20.601,-2.262 20.601,-1.796C20.601,-1.263 20.601,-0.531 20.127,-0.531C19.788,-0.531 19.652,-0.798 19.652,-1.13C19.652,-1.796 19.652,-2.461 19.381,-3.326C19.11,-4.258 18.5,-5.389 15.857,-5.655C14.028,-5.855 7.319,-5.988 6.167,-5.988C5.828,-5.988 5.692,-5.788 5.692,-5.522L5.692,0.333C5.692,2.596 5.625,10.315 5.692,11.712C5.896,16.304 6.912,17.169 13.553,17.169C15.315,17.169 18.297,17.169 20.059,16.437C21.821,15.705 22.634,14.374 23.108,11.646C23.244,10.914 23.38,10.648 23.718,10.648C24.125,10.648 24.125,11.18 24.125,11.646C24.125,12.178 23.583,16.703 23.244,18.101C22.77,19.83 22.228,19.83 19.584,19.83C9.352,19.83 4.812,19.432 2.846,19.432C2.71,19.432 1.559,19.498 0.135,19.498C-1.22,19.564 -2.778,19.631 -3.795,19.631C-4.541,19.631 -4.879,19.498 -4.879,19.099C-4.879,18.899 -4.744,18.7 -4.337,18.7C-3.728,18.7 -2.914,18.566 -2.304,18.433C-0.949,18.167 -0.61,16.703 -0.339,14.773C0,11.978 0,6.722 0,0.333L0,-11.378Z" style="fill:rgb(35,31,32);fill-rule:nonzero;"/>
                </g>
            </g>
            <g transform="matrix(4.16667,0,0,4.16667,1245.41,122.37)">
                <g>
                    <path d="M0,48.577C-0.949,48.111 -1.017,47.845 -1.017,46.048C-1.017,42.722 -0.745,40.059 -0.678,38.994C-0.61,38.263 -0.474,37.93 -0.136,37.93C0.271,37.93 0.339,38.13 0.339,38.662C0.339,39.261 0.339,40.192 0.542,41.124C1.559,46.048 6.031,47.911 10.571,47.911C17.077,47.911 20.262,43.32 20.262,39.061C20.262,34.47 18.297,31.808 12.469,27.084L9.419,24.621C2.236,18.832 0.61,14.706 0.61,10.182C0.61,3.061 6.031,-1.796 14.638,-1.796C17.28,-1.796 19.246,-1.53 20.94,-1.131C22.228,-0.864 22.77,-0.798 23.312,-0.798C23.854,-0.798 23.989,-0.665 23.989,-0.332C23.989,0.001 23.718,2.197 23.718,6.722C23.718,7.786 23.583,8.252 23.244,8.252C22.837,8.252 22.77,7.919 22.702,7.387C22.634,6.588 22.228,4.792 21.821,4.06C21.415,3.328 19.584,0.533 13.35,0.533C8.674,0.533 5.015,3.394 5.015,8.252C5.015,12.045 6.912,14.307 13.282,19.431L15.18,20.895C23.176,27.084 25.074,31.209 25.074,36.533C25.074,39.261 23.989,44.318 19.313,47.579C16.4,49.576 12.74,50.373 9.081,50.373C5.896,50.373 2.778,49.908 0,48.577" style="fill:rgb(35,31,32);fill-rule:nonzero;"/>
                </g>
            </g>
            <g transform="matrix(4.16667,0,0,4.16667,276.797,175.973)">
                <g>
                    <path d="M0,-17.467L9.964,0L2.169,-8.395" style="fill:rgb(237,28,36);fill-rule:nonzero;stroke:white;stroke-width:0.33px;"/>
                </g>
            </g>
            <g transform="matrix(4.16667,0,0,4.16667,285.834,298.589)">
                <g>
                    <path d="M0,-37.823L-34.259,9.072L-2.169,-46.895" style="fill:rgb(237,28,36);fill-rule:nonzero;stroke:white;stroke-width:0.33px;"/>
                </g>
            </g>
            <g transform="matrix(4.16667,0,0,4.16667,370.878,278.709)">
                <g>
                    <path d="M0,-2.543L-4.636,-10.669L-18.049,-24.497L-56.662,17.453L-59.145,21.954L-15.802,-16.353L0,-2.543Z" style="fill:rgb(237,28,36);fill-rule:nonzero;stroke:white;stroke-width:0.33px;"/>
                </g>
            </g>
            <g transform="matrix(4.16667,0,0,4.16667,402.916,302.418)">
                <g>
                    <path d="M0,5.246L-3.21,-0.382L-21.504,-14.845L-67.97,18.323L-68.945,20.091L-19.376,-7.134L0,5.246Z" style="fill:rgb(237,28,36);fill-rule:nonzero;stroke:white;stroke-width:0.33px;"/>
                </g>
            </g>
            <g transform="matrix(4.16667,0,0,4.16667,424.042,338.389)">
                <g>
                    <path d="M0,6.189L-2.618,1.598L-22.764,-8.639L-74.831,12.969L-75.856,14.828L-20.89,-0.442L0,6.189Z" style="fill:rgb(237,28,36);fill-rule:nonzero;stroke:white;stroke-width:0.33px;"/>
                </g>
            </g>
            <g transform="matrix(4.16667,0,0,4.16667,352.236,382.021)">
                <g>
                    <path d="M0,2.63L-60.434,7.571L-59.496,5.833L-1.873,-5.124L20.893,1.715L24.792,7.754L0,2.63Z" style="fill:rgb(237,28,36);fill-rule:nonzero;stroke:white;stroke-width:0.33px;"/>
                </g>
            </g>
            <g transform="matrix(4.16667,0,0,4.16667,0,245.871)">
                <g>
                    <rect x="127.736" y="28.22" width="1.056" height="11.551" style="fill:rgb(35,31,32);"/>
                </g>
            </g>
            <g transform="matrix(4.16667,0,0,4.16667,625.163,411.586)">
                <g>
                    <path d="M0,-11.551L0.928,-11.551L0.928,0L-0.576,0L-1.904,-10.271L-1.936,-10.271L-1.936,0L-2.864,0L-2.864,-11.551L-1.328,-11.551L-0.032,-1.664L0,-1.664L0,-11.551Z" style="fill:rgb(35,31,32);fill-rule:nonzero;"/>
                </g>
            </g>
            <g transform="matrix(4.16667,0,0,4.16667,712.546,367.191)">
                <g>
                    <path d="M0,9.759C0.704,9.759 0.928,9.535 0.928,8.863L0.928,0.896C0.928,0.223 0.704,0 0,0L-0.56,0L-0.56,9.759L0,9.759ZM-1.616,-0.896L0.192,-0.896C1.632,-0.896 1.984,-0.16 1.984,0.975L1.984,8.783C1.984,9.919 1.632,10.655 0.192,10.655L-1.616,10.655L-1.616,-0.896Z" style="fill:rgb(35,31,32);fill-rule:nonzero;"/>
                </g>
            </g>
            <g transform="matrix(4.16667,0,0,4.16667,808.863,411.986)">
                <g>
                    <path d="M0,-11.647L1.056,-11.647L1.056,-1.648C1.056,-0.368 0.096,0 -0.816,0C-1.696,0 -2.656,-0.368 -2.656,-1.648L-2.656,-11.647L-1.6,-11.647L-1.6,-1.984C-1.6,-1.152 -1.328,-0.896 -0.8,-0.896C-0.256,-0.896 0,-1.152 0,-1.984L0,-11.647Z" style="fill:rgb(35,31,32);fill-rule:nonzero;"/>
                </g>
            </g>
            <g transform="matrix(4.16667,0,0,4.16667,898.526,404.986)">
                <g>
                    <path d="M0,-8.383C0,-8.831 -0.112,-9.167 -0.608,-9.167C-1.104,-9.167 -1.216,-8.831 -1.216,-8.383L-1.216,-7.167C-1.216,-6.8 -1.152,-6.431 -0.976,-6.127L0.704,-3.248C0.944,-2.847 1.088,-2.352 1.088,-1.84L1.088,-0.016C1.088,1.072 0.448,1.68 -0.608,1.68C-1.776,1.68 -2.335,1.152 -2.335,-0.016L-2.335,-1.6L-1.28,-1.6L-1.28,-0.08C-1.28,0.464 -1.072,0.784 -0.608,0.784C-0.176,0.784 0.032,0.464 0.032,-0.08L0.032,-1.696C0.032,-2.095 -0.048,-2.4 -0.272,-2.8L-1.824,-5.504C-2.112,-5.999 -2.271,-6.383 -2.271,-6.975L-2.271,-8.367C-2.271,-9.503 -1.68,-10.063 -0.608,-10.063C0.576,-10.063 1.056,-9.503 1.056,-8.447L1.056,-6.975L0,-6.975L0,-8.383Z" style="fill:rgb(35,31,32);fill-rule:nonzero;"/>
                </g>
            </g>
            <g transform="matrix(4.16667,0,0,4.16667,981.651,407.852)">
                <g>
                    <path d="M0,-9.759L-1.184,-9.759L-1.184,-10.655L2.24,-10.655L2.24,-9.759L1.056,-9.759L1.056,0.896L0,0.896L0,-9.759Z" style="fill:rgb(35,31,32);fill-rule:nonzero;"/>
                </g>
            </g>
            <g transform="matrix(4.16667,0,0,4.16667,1073.23,390.321)">
                <g>
                    <path d="M0,-1.344C0.496,-1.344 0.784,-1.488 0.784,-2.176L0.784,-4.768C0.784,-5.44 0.432,-5.552 -0.112,-5.552L-0.704,-5.552L-0.704,-1.344L0,-1.344ZM0.832,0.256C0.832,-0.304 0.496,-0.448 0,-0.448L-0.704,-0.448L-0.704,5.104L-1.76,5.104L-1.76,-6.448L0.208,-6.448C1.216,-6.448 1.84,-6.272 1.84,-5.12L1.84,-2.192C1.84,-1.296 1.504,-0.992 0.688,-0.944L0.688,-0.912C1.44,-0.864 1.888,-0.64 1.888,0.16L1.888,5.104L0.832,5.104L0.832,0.256Z" style="fill:rgb(35,31,32);fill-rule:nonzero;"/>
                </g>
            </g>
            <g transform="matrix(4.16667,0,0,4.16667,0,245.871)">
                <g>
                    <rect x="277.94" y="28.22" width="1.056" height="11.551" style="fill:rgb(35,31,32);"/>
                </g>
            </g>
            <g transform="matrix(4.16667,0,0,4.16667,1239.28,411.586)">
                <g>
                    <path d="M0,-11.551L2.8,-11.551L2.8,-10.655L1.056,-10.655L1.056,-6.447L2.72,-6.447L2.72,-5.551L1.056,-5.551L1.056,-0.896L2.8,-0.896L2.8,0L0,0L0,-11.551Z" style="fill:rgb(35,31,32);fill-rule:nonzero;"/>
                </g>
            </g>
            <g transform="matrix(4.16667,0,0,4.16667,1335,404.986)">
                <g>
                    <path d="M0,-8.383C0,-8.831 -0.112,-9.167 -0.608,-9.167C-1.104,-9.167 -1.216,-8.831 -1.216,-8.383L-1.216,-7.167C-1.216,-6.8 -1.152,-6.431 -0.976,-6.127L0.704,-3.248C0.944,-2.847 1.088,-2.352 1.088,-1.84L1.088,-0.016C1.088,1.072 0.448,1.68 -0.608,1.68C-1.775,1.68 -2.335,1.152 -2.335,-0.016L-2.335,-1.6L-1.28,-1.6L-1.28,-0.08C-1.28,0.464 -1.072,0.784 -0.608,0.784C-0.176,0.784 0.032,0.464 0.032,-0.08L0.032,-1.696C0.032,-2.095 -0.048,-2.4 -0.271,-2.8L-1.824,-5.504C-2.112,-5.999 -2.271,-6.383 -2.271,-6.975L-2.271,-8.367C-2.271,-9.503 -1.68,-10.063 -0.608,-10.063C0.576,-10.063 1.056,-9.503 1.056,-8.447L1.056,-6.975L0,-6.975L0,-8.383Z" style="fill:rgb(35,31,32);fill-rule:nonzero;"/>
                </g>
            </g>
        </g>
    </g>
</svg>
