<!DOCTYPE svg PUBLIC "-//W3C//DTD SVG 1.1//EN" "http://www.w3.org/Graphics/SVG/1.1/DTD/svg11.dtd">
<svg width="100%" height="100%" viewBox="0 0 361 317" version="1.1" xmlns="http://www.w3.org/2000/svg" xmlns:xlink="http://www.w3.org/1999/xlink" xml:space="preserve" xmlns:serif="http://www.serif.com/" style="fill-rule:evenodd;clip-rule:evenodd;" aria-labelledby="states-industries-logo-mark" class="site-logo mark">
	<title id="states-industries-logo-mark">States Industries</title>
    <g transform="matrix(1,0,0,1,-97.61,-100.376)">
        <g transform="matrix(4.16667,0,0,4.16667,276.797,175.973)">
            <g>
                <path class="stack-layer" d="M0,-17.467L9.964,0L2.169,-8.395"/>
            </g>
        </g>
        <g transform="matrix(4.16667,0,0,4.16667,285.834,298.589)">
            <g>
                <path class="stack-layer" d="M0,-37.823L-34.259,9.072L-2.169,-46.895"/>
            </g>
        </g>
        <g transform="matrix(4.16667,0,0,4.16667,370.878,278.709)">
            <g>
                <path class="stack-layer" d="M0,-2.543L-4.636,-10.669L-18.049,-24.497L-56.662,17.453L-59.145,21.954L-15.802,-16.353L0,-2.543Z"/>
            </g>
        </g>
        <g transform="matrix(4.16667,0,0,4.16667,402.916,302.418)">
            <g>
                <path class="stack-layer" d="M0,5.246L-3.21,-0.382L-21.504,-14.845L-67.97,18.323L-68.945,20.091L-19.376,-7.134L0,5.246Z"/>
            </g>
        </g>
        <g transform="matrix(4.16667,0,0,4.16667,424.042,338.389)">
            <g>
                <path class="stack-layer" d="M0,6.189L-2.618,1.598L-22.764,-8.639L-74.831,12.969L-75.856,14.828L-20.89,-0.442L0,6.189Z"/>
            </g>
        </g>
        <g transform="matrix(4.16667,0,0,4.16667,352.236,382.021)">
            <g>
                <path class="stack-layer" d="M0,2.63L-60.434,7.571L-59.496,5.833L-1.873,-5.124L20.893,1.715L24.792,7.754L0,2.63Z"/>
            </g>
        </g>
    </g>
</svg>
